<svg width="40" height="40" viewBox="0 0 40 40" xmlns="http://www.w3.org/2000/svg" role="img" aria-labelledby="title">
  <title>Panel Contable Logo</title>
  <defs>
    <linearGradient id="grad" x1="0%" y1="0%" x2="100%" y2="100%">
      <stop offset="0%" stop-color="#2563eb" />
      <stop offset="100%" stop-color="#38bdf8" />
    </linearGradient>
  </defs>
  <rect width="40" height="40" rx="12" fill="url(#grad)" />
  <path d="M13 27h14a2 2 0 0 0 2-2v-4.5l-5.2 3.5a2 2 0 0 1-2.21-.03l-5.59-3.9-5 3.89V25a2 2 0 0 0 2 2Z" fill="#ffffff" opacity="0.9" />
  <path d="M11 22.3V15a2 2 0 0 1 2-2h14a2 2 0 0 1 2 2v5.8l-5.2 3.5a2 2 0 0 1-2.21-.03L13 19.4l-2 1.55Z" fill="#ffffff" />
</svg>
